Coordinates
version=1
nRows=34
nColumns=19
inDegrees=yes

Units are S.I. units (second, meters, Newtons, ...)
If the header above contains a line with 'inDegrees', this indicates whether rotational values are in degrees (yes) or radians (no).

endheader
time	pelvis_tilt	pelvis_list	pelvis_rotation	pelvis_tx	pelvis_ty	pelvis_tz	hip_flexion_r	hip_adduction_r	hip_rotation_r	knee_angle_r	knee_angle_r_beta	ankle_angle_r	hip_flexion_l	hip_adduction_l	hip_rotation_l	knee_angle_l	knee_angle_l_beta	ankle_angle_l
     16.84000000	      0.38781945	     12.14979817	     -3.20534915	      2.38467913	      1.00612842	      1.03046006	    -16.31047934	    -14.43289493	      0.00538509	     81.62977420	      1.42470833	    -20.42645151	     32.41024017	     11.54838117	    -16.55738649	     28.27724355	      0.49353100	     -0.96952852
     16.84666667	      0.61185762	     11.95531001	     -2.67108338	      2.38407310	      1.00199942	      1.03113010	    -14.87374737	    -13.48469874	      0.55810033	     85.58294916	      1.49370425	    -19.61575150	     31.57746673	     11.36744542	    -16.95531415	     30.18039216	      0.52674721	     -0.02108131
     16.85333333	      0.60234431	     11.76546088	     -1.98260066	      2.38321239	      0.99748170	      1.03142343	    -13.11649836	    -12.62223789	      0.86711173	     89.45246202	      1.56123999	    -18.74507044	     31.05137800	     11.27633257	    -17.00215862	     32.35080525	      0.56462807	      1.33561448
     16.86000000	      1.08080068	     11.94356696	     -1.29364548	      2.38229395	      0.99341621	      1.03156501	    -11.91405923	    -12.41821944	      0.71183164	     93.07838846	      1.62452434	    -17.75253082	     29.96419787	     11.67531086	    -16.90755006	     34.50694870	      0.60225987	      3.14986078
     16.86666667	      0.24953671	     11.49163142	     -0.37027403	      2.38066225	      0.98810139	      1.03133386	     -8.95441430	    -11.44676813	      0.87094408	     96.85345364	      1.69041166	    -16.86407799	     30.43362046	     11.47389802	    -16.17367676	     37.13839045	      0.64818719	      5.19219079
     16.87333333	     -0.10513896	     11.38929944	      0.56848064	      2.37891850	      0.98341107	      1.03085719	     -6.51212869	    -11.14069232	      0.65177051	    100.35503897	      1.75152585	    -15.96582472	     30.31323141	     11.79491339	    -15.27602146	     39.64107876	      0.69186734	      7.53737757
     16.88000000	      0.13117499	     11.58126126	      1.29578390	      2.37703943	      0.97968881	      1.03046736	     -4.63247833	    -11.37732078	      0.42394292	    103.57509644	      1.80772646	    -15.03696548	     29.41462590	     12.43611755	    -14.43053230	     41.90604627	      0.73139848	     10.14571034
     16.88666667	     -1.03102230	     11.16097555	      2.56049513	      2.37441951	      0.97476116	      1.02930235	     -0.96070234	    -10.98306444	      0.11901195	    106.83655034	      1.86464956	    -14.33599500	     30.06758924	     12.74699493	    -12.74798452	     44.37270320	      0.77444977	     12.57340666
     16.89333333	     -1.51950335	     11.01846858	      3.57769250	      2.37171166	      0.97107742	      1.02831376	      2.06750694	    -11.09875778	     -0.12369199	    109.74162680	      1.91535271	    -13.63171144	     29.74588867	     13.30497327	    -11.24516876	     46.40296573	      0.80988453	     15.06314903
     16.90000000	     -1.98604127	     10.86649917	      4.64631210	      2.36880243	      0.96796034	      1.02717277	      5.18207412	    -11.34818654	     -0.38834764	    112.35595969	      1.96098143	    -12.96570116	     29.17909343	     13.89886181	     -9.61268323	     48.09870648	      0.83948079	     17.41135501
     16.90666667	     -1.77156678	     10.84870743	      5.33714884	      2.36595058	      0.96634879	      1.02646423	      7.69219058	    -11.73330779	     -0.33196237	    114.55143532	      1.99929971	    -12.35998326	     27.55384273	     14.38415211	     -8.30936141	     49.23719833	      0.85935123	     19.80033509
     16.91333333	     -2.75178089	     10.38077081	      6.68183078	      2.36250486	      0.96376722	      1.02488896	     11.63863578	    -11.89619609	     -0.69218044	    116.58660791	      2.03482017	    -11.78595702	     27.12790855	     14.75687021	     -6.26046957	     50.28563196	      0.87764984	     21.62447892
     16.92000000	     -3.08370428	      9.96986204	      7.52719537	      2.35933833	      0.96266478	      1.02403046	     15.01311899	    -12.00999541	     -0.66680419	    118.12995658	      2.06175669	    -11.24796239	     25.69278944	     14.79163793	     -4.72668635	     50.75096862	      0.88577150	     23.44582279
     16.92666667	     -2.83695855	      9.64097953	      8.10717948	      2.35666810	      0.96309220	      1.02336237	     17.73457185	    -12.13876553	     -0.52519590	    119.12197689	      2.07907071	    -10.63707805	     23.28798243	     14.65117873	     -3.40743876	     50.59479462	      0.88304575	     25.00014554
     16.93333333	     -2.73673286	      8.96561193	      9.16280329	      2.35428629	      0.96400121	      1.02203227	     20.41393929	    -12.10301184	     -1.03615380	    119.56520120	      2.08680643	     -9.95569215	     20.84502238	     14.22776563	     -1.60746937	     50.17918595	      0.87579201	     26.36514675
     16.94000000	     -2.53863831	      8.32647770	      9.69476972	      2.35202206	      0.96545607	      1.02119102	     23.15274083	    -11.92820012	     -1.04995589	    119.68553403	      2.08890664	     -9.25874357	     18.16897421	     13.50684357	     -0.37725217	     49.30473724	      0.86053000	     27.41572581
     16.94666667	     -2.60743746	      7.74861174	     10.06377647	      2.34936248	      0.96664662	      1.02034648	     26.29748048	    -11.83642648	     -0.84405316	    119.64344520	      2.08817205	     -8.43623164	     15.75213524	     12.78218768	      0.59502361	     48.18827419	      0.84104405	     28.12920397
     16.95333333	     -2.74089295	      7.11835785	     10.32439079	      2.34671630	      0.96795716	      1.01949227	     29.49963366	    -11.64000869	     -0.60631116	    119.30987465	      2.08235014	     -7.58033891	     13.36106475	     11.92805638	      1.40340496	     46.85178276	      0.81771787	     28.45088647
     16.96000000	     -3.20547849	      6.74282045	      9.93685955	      2.34461314	      0.96908867	      1.01921233	     33.14752269	    -11.33583540	      0.40043137	    118.69518008	      2.07162170	     -6.75892080	     11.20945148	     11.24287144	      1.44443927	     45.17109514	      0.78838434	     28.50383944
     16.96666667	     -3.49293501	      6.02713088	      9.76160147	      2.34313226	      0.97117137	      1.01845810	     36.24899194	    -10.74187638	      0.79335222	    117.48858826	      2.05056270	     -5.97602653	      8.79522445	     10.23140524	      1.77614658	     43.29378477	      0.75561909	     28.04496768
     16.97333333	     -3.64187406	      5.27538536	      9.39164894	      2.34232149	      0.97390604	      1.01778693	     38.96266948	     -9.94678711	      1.14850884	    115.84544701	      2.02188447	     -5.22130495	      6.13599390	      9.13726816	      1.88746592	     41.13998028	      0.71802811	     27.07309840
     16.98000000	     -3.79929905	      4.46442762	      8.91627013	      2.34196508	      0.97703226	      1.01706692	     41.46489401	     -9.01362915	      1.41411035	    113.83030171	      1.98671355	     -4.53988799	      3.45329791	      8.00751170	      1.85186862	     38.81258061	      0.67740732	     25.53969306
     16.98666667	     -3.97180328	      3.63132963	      8.32378367	      2.34216009	      0.98051342	      1.01638594	     43.73272617	     -7.95287057	      1.63589418	    111.45709760	      1.94529333	     -3.94189749	      0.75586349	      6.89259056	      1.65343883	     36.32895844	      0.63405994	     23.38580595
     16.99333333	     -4.22746871	      2.78053546	      7.67042078	      2.34273675	      0.98419361	      1.01567691	     45.86417012	     -6.85564896	      1.76562786	    108.77613604	      1.89850172	     -3.47305655	     -1.82962219	      5.80674443	      1.25814504	     33.77094664	      0.58941421	     20.60209910
     17.00000000	     -4.43622523	      1.92895359	      6.97384050	      2.34375409	      0.98820085	      1.01494289	     47.67822112	     -5.74317864	      1.79452001	    105.79027752	      1.84638866	     -3.06137279	     -4.45833911	      4.76802114	      0.72458480	     31.11948072	      0.54313740	     17.22974771
     17.00666667	     -4.71932137	      1.09009407	      6.21933434	      2.34516212	      0.99230467	      1.01419065	     49.34772052	     -4.64982867	      1.74597124	    102.53578488	      1.78958705	     -2.83070715	     -6.94781611	      3.78458727	     -0.09240835	     28.46612220	      0.49682756	     13.27863397
     17.01333333	     -5.22890843	      0.30315929	      5.42096958	      2.34674813	      0.99623603	      1.01345964	     51.06768832	     -3.60382590	      1.68999366	     99.05860040	      1.72889873	     -2.74900380	     -9.07447849	      2.93626788	     -1.10532864	     25.92156322	      0.45241663	      8.83980582
     17.02000000	     -5.59749939	     -0.46768185	      4.67631098	      2.34864511	      1.00043475	      1.01255100	     52.37843558	     -2.73940830	      1.37822526	     95.32996865	      1.66382183	     -2.73105256	    -11.27300024	      2.12247352	     -2.27356873	     23.41291775	      0.40863250	      4.03495725
     17.02666667	     -5.99493496	     -1.21445907	      3.99003214	      2.35067795	      1.00462425	      1.01153980	     53.50376450	     -2.04505589	      0.85434099	     91.39038575	      1.59506314	     -2.78677622	    -13.30080775	      1.37170913	     -3.52431428	     21.05911429	      0.36755088	     -0.94644736
     17.03333333	     -6.49268176	     -1.88891893	      3.29362858	      2.35275408	      1.00858336	      1.01059367	     54.55358856	     -1.48418324	      0.19490360	     87.27776994	      1.52328445	     -2.88813518	    -15.04677458	      0.72703283	     -4.95296848	     18.95168851	      0.33076936	     -5.93774779
     17.04000000	     -7.05631672	     -2.55519487	      2.63850065	      2.35488832	      1.01230418	      1.00970064	     55.46945515	     -1.06529298	     -0.74461117	     82.99182948	      1.44848068	     -2.97785098	    -16.53132430	      0.09474483	     -6.50006659	     17.16291912	      0.29954945	    -10.69872126
     17.04666667	     -7.40682204	     -3.29235268	      2.19663572	      2.35694911	      1.01621913	      1.00870412	     55.90643515	     -0.86331593	     -2.19223784	     78.50737455	      1.37021217	     -2.95385321	    -18.02986965	     -0.67419728	     -7.93921182	     15.71205329	      0.27422706	    -15.08457642
     17.05333333	     -7.68892795	     -4.07936328	      1.92047395	      2.35896809	      1.02000903	      1.00781484	     56.04561687	     -0.81498643	     -4.09830775	     73.87572656	      1.28937467	     -2.82218374	    -19.37671603	     -1.56503518	     -9.25791301	     14.68855154	      0.25636359	    -18.92200808
     17.06000000	     -8.05724779	     -4.94919049	      1.64864953	      2.36086800	      1.02342714	      1.00742958	     56.07660119	     -0.64653080	     -6.29509769	     69.10279974	      1.20607138	     -2.62482401	    -20.36921559	     -2.60685476	    -10.64552859	     14.24056299	      0.24854471	    -22.03047338
